<svg xmlns="http://www.w3.org/2000/svg" width="37.518" height="99.348" viewBox="0 0 37.518 99.348">
  <g id="Group_1" data-name="Group 1" transform="matrix(-1, 0.017, -0.017, -1, -178.046, 297.495)">
    <g id="Polygon_1" data-name="Polygon 1" transform="translate(-219 195)" fill="#252525">
      <path d="M 28.04240989685059 29.5 L 8.957599639892578 29.5 C 7.303420066833496 29.5 5.834519863128662 28.63768005371094 5.028279781341553 27.19327926635742 C 4.222040176391602 25.7488899230957 4.259069919586182 24.04597854614258 5.12732982635498 22.63799858093262 L 14.6697301864624 7.163829326629639 C 15.49528980255127 5.825088977813721 16.92716979980469 5.025829315185547 18.5 5.025829315185547 C 20.07283020019531 5.025829315185547 21.50470924377441 5.825088977813721 22.33025932312012 7.163829326629639 L 31.8726692199707 22.63799858093262 C 32.74092864990234 24.04597854614258 32.77796173095703 25.7488899230957 31.97171974182129 27.19327926635742 C 31.16547966003418 28.63768005371094 29.69658088684082 29.5 28.04240989685059 29.5 Z" stroke="none"/>
      <path d="M 18.5 5.525829315185547 C 17.10193061828613 5.525829315185547 15.82913970947266 6.236278533935547 15.09531021118164 7.42626953125 L 5.552909851074219 22.90044784545898 C 4.781131744384766 24.1519889831543 4.748218536376953 25.66567993164062 5.464870452880859 26.9495792388916 C 6.181529998779297 28.23348999023438 7.487220764160156 29 8.957599639892578 29 L 28.04240989685059 29 C 29.51277923583984 29 30.8184700012207 28.23348999023438 31.53512954711914 26.94958877563477 C 32.25178146362305 25.66567993164062 32.2188720703125 24.1519889831543 31.44709014892578 22.90044784545898 L 21.9046802520752 7.42626953125 C 21.17084884643555 6.236278533935547 19.89806938171387 5.525829315185547 18.5 5.525829315185547 M 18.49999809265137 4.525829315185547 C 20.13961791992188 4.525829315185547 21.77923583984375 5.317678451538086 22.75584983825684 6.901378631591797 L 32.29825973510742 22.37555885314941 C 34.35250854492188 25.70676803588867 31.95608901977539 30 28.04240989685059 30 L 8.957599639892578 30 C 5.043909072875977 30 2.647491455078125 25.70676803588867 4.701740264892578 22.37555885314941 L 14.244140625 6.901378631591797 C 15.22076034545898 5.317678451538086 16.86038017272949 4.525829315185547 18.49999809265137 4.525829315185547 Z" stroke="none" fill="#252525"/>
    </g>
    <line id="Line_2" data-name="Line 2" y1="93" transform="translate(-200.5 200.997)" fill="none" stroke="#252525" stroke-width="5"/>
  </g>
</svg>
